<svg width="433" height="433" viewBox="0 0 433 433" fill="none" xmlns="http://www.w3.org/2000/svg">
<path d="M216.615 0.411499C97.3437 0.411499 0.614563 97.1355 0.614563 216.412C0.614563 335.682 97.3437 432.412 216.615 432.412C335.891 432.412 432.615 335.682 432.615 216.412C432.615 97.1355 335.891 0.411499 216.615 0.411499Z" fill="#1B1F3B"/>
<path d="M243.344 127C240.646 123.516 236.99 121.776 232.464 121.776C228.458 121.776 225.76 122.557 224.276 124.036C222.797 125.604 219.75 129.609 214.964 136.312C210.177 142.932 204.776 148.937 198.594 154.333C192.411 159.734 184.229 164.781 173.958 169.656C167.078 172.88 162.292 175.49 159.505 177.578C156.807 179.583 155.411 182.802 155.411 187.156C155.411 190.901 156.807 194.208 159.594 197.083C162.38 199.953 165.51 201.349 169.083 201.349C176.568 201.349 191.109 193.078 212.698 176.448V292.5C212.698 299.292 214.266 304.427 217.401 307.911C220.536 311.396 224.714 313.135 229.937 313.135C241.604 313.135 247.437 304.604 247.437 287.542V141.448C247.437 135.354 246.042 130.479 243.344 127Z" fill="#C9A227"/>
</svg>
