<svg width="433" height="433" viewBox="0 0 433 433" fill="none" xmlns="http://www.w3.org/2000/svg">
<mask id="mask0_27_183" style="mask-type:luminance" maskUnits="userSpaceOnUse" x="0" y="0" width="433" height="433">
<path d="M0.140625 0.020874H432.141V432.021H0.140625V0.020874Z" fill="white"/>
</mask>
<g mask="url(#mask0_27_183)">
<path d="M216.141 0.020874C96.8646 0.020874 0.140625 96.75 0.140625 216.021C0.140625 335.297 96.8646 432.021 216.141 432.021C335.417 432.021 432.141 335.297 432.141 216.021C432.141 96.75 335.417 0.020874 216.141 0.020874Z" fill="#1B1F3B"/>
</g>
<path d="M278.563 283.495C275.083 280.797 270.031 279.406 263.417 279.406H196.813C198.901 276.182 200.99 273.396 203.083 271.135C207.87 265.385 216.661 257.203 229.375 246.755C242.172 236.307 251.313 228.646 256.714 223.771C262.109 218.896 267.505 212.104 272.729 203.484C277.953 194.865 280.568 185.292 280.568 174.755C280.568 168.052 279.349 161.521 276.823 155.339C274.297 149.073 270.818 143.589 266.286 138.797C261.76 134.01 256.536 130.266 250.62 127.568C241.474 123.474 230.333 121.474 217.359 121.474C206.563 121.474 197.161 123.042 189.151 126.26C181.141 129.484 174.526 133.662 169.214 138.797C163.99 144.021 160.073 149.771 157.464 156.125C154.849 162.479 153.542 168.662 153.542 174.495C153.542 179.37 154.937 183.203 157.724 185.984C160.51 188.771 164.078 190.167 168.344 190.167C173.219 190.167 176.875 188.599 179.401 185.552C181.927 182.505 184.188 178.151 186.193 172.406C188.193 166.745 189.589 163.266 190.458 161.958C196.813 152.208 205.604 147.333 216.75 147.333C222.063 147.333 226.849 148.552 231.375 150.901C235.818 153.25 239.385 156.646 242 160.912C244.609 165.177 245.917 170.052 245.917 175.542C245.917 180.589 244.698 185.641 242.26 190.948C239.823 196.26 236.339 201.307 231.635 206.271C227.026 211.234 221.193 216.198 214.224 221.162C210.307 223.771 203.776 229.344 194.724 237.703C185.583 246.057 175.396 256.156 164.078 267.823C161.38 270.698 158.854 274.703 156.589 279.75C154.328 284.802 153.109 288.896 153.109 291.943C153.109 296.729 154.938 300.823 158.505 304.391C162.073 307.958 167.036 309.703 173.396 309.703H267.245C272.818 309.703 277.083 308.219 279.781 305.349C282.568 302.474 283.964 298.906 283.964 294.729C283.786 289.938 282.047 286.193 278.563 283.495Z" fill="#C9A227"/>
</svg>
