<svg width="433" height="433" viewBox="0 0 433 433" fill="none" xmlns="http://www.w3.org/2000/svg">
<mask id="mask0_27_184" style="mask-type:luminance" maskUnits="userSpaceOnUse" x="0" y="0" width="433" height="433">
<path d="M0.197876 0.71875H432.198V432.719H0.197876V0.71875Z" fill="white"/>
</mask>
<g mask="url(#mask0_27_184)">
<path d="M216.198 0.71875C96.9218 0.71875 0.197876 97.4427 0.197876 216.719C0.197876 335.99 96.9218 432.719 216.198 432.719C335.469 432.719 432.198 335.99 432.198 216.719C432.198 97.4427 335.469 0.71875 216.198 0.71875Z" fill="#1B1F3B"/>
</g>
<path d="M278.531 235.521C276.271 229.948 272.786 224.901 268.26 220.286C263.734 215.672 258.161 211.578 251.458 208.01C258.333 202.266 263.646 196.255 267.302 190.25C270.958 184.156 272.875 176.844 272.875 168.396C272.875 161.953 271.568 155.859 269.042 150.286C266.516 144.719 262.687 139.755 257.724 135.49C252.677 131.224 246.844 128 239.964 125.74C233.172 123.474 225.599 122.344 217.417 122.344C208.01 122.344 199.396 123.646 191.818 126.349C184.245 129.047 177.802 132.615 172.667 136.969C167.531 141.406 163.609 146.021 160.911 150.896C158.214 155.771 156.906 160.474 156.906 164.828C156.906 169.443 158.302 173.099 161.172 175.885C164.047 178.672 167.182 180.063 170.578 180.063C173.448 180.063 175.974 179.542 178.24 178.495C180.411 177.453 181.979 176.057 182.854 174.318C184.333 171.01 185.901 167.438 187.641 163.698C189.38 159.953 191.208 156.906 193.214 154.552C195.125 152.203 197.828 150.286 201.224 148.807C204.615 147.328 208.885 146.63 214.021 146.63C221.682 146.63 227.776 148.984 232.214 153.682C236.745 158.385 239.005 164.042 239.005 170.573C239.005 179.193 236.219 185.724 230.562 190.339C224.901 194.953 218.198 197.214 210.365 197.214H205.141C199.13 197.214 194.516 198.432 191.469 200.958C188.422 203.484 186.854 206.792 186.854 210.885C186.854 215.063 188.161 218.281 190.687 220.635C193.214 222.984 196.87 224.115 201.568 224.115C202.615 224.115 204.88 223.943 208.448 223.594C212.016 223.245 214.63 223.073 216.37 223.073C226.036 223.073 233.609 225.859 239.094 231.516C244.49 237.177 247.276 245.01 247.276 254.938C247.276 261.641 245.708 267.563 242.49 272.698C239.266 277.833 235.26 281.667 230.385 284.276C225.51 286.891 220.375 288.193 215.151 288.193C206.01 288.193 198.87 285.323 193.823 279.573C188.771 273.828 183.984 265.036 179.63 253.281C178.932 251.365 177.542 249.625 175.276 248.234C173.099 246.839 170.75 246.146 168.401 246.146C163.609 246.146 159.693 247.625 156.474 250.672C153.25 253.719 151.682 257.635 151.682 262.599C151.682 266.427 152.99 271.302 155.687 277.135C158.385 282.969 162.307 288.719 167.531 294.203C172.75 299.688 179.37 304.214 187.464 307.87C195.562 311.526 204.703 313.354 214.891 313.354C224.901 313.354 234.042 311.786 242.401 308.568C250.76 305.344 257.812 300.995 263.906 295.333C269.911 289.672 274.526 283.229 277.573 276.005C280.708 268.781 282.187 261.292 282.187 253.542C281.927 247.099 280.797 241.094 278.531 235.521Z" fill="#C9A227"/>
</svg>
