<svg width="227" height="226" viewBox="0 0 227 226" fill="none" xmlns="http://www.w3.org/2000/svg">
<circle cx="113.979" cy="113" r="113" fill="#1B1F3B"/>
<path d="M107.389 125.219C108.097 124.281 109.509 123.964 110.566 123.885C110.92 123.849 111.311 123.927 111.624 124.12C112.686 124.708 114.254 125.339 114.806 125.339C115.431 125.339 116.884 124.75 117.665 124.359C117.785 124.281 117.941 124.24 118.061 124.203C118.65 124.042 120.139 123.771 121.275 124.516C121.863 124.906 122.259 125.536 122.374 126.281C122.493 127.302 121.785 128.281 120.728 128.396C120.139 128.479 119.551 128.24 119.16 127.849C118.374 128.24 116.41 129.104 114.842 129.104C113.389 129.104 111.467 128.24 110.41 127.729C110.332 127.729 110.254 127.771 110.176 127.771C109.509 128.359 108.525 128.438 107.78 127.849C106.92 127.224 106.764 126.047 107.389 125.219ZM96.0923 96.2708C100.603 95.7969 103.426 96.6979 105.587 97.6406C106.525 98.0729 107.665 97.6406 108.097 96.6615C108.525 95.7188 108.097 94.5833 107.113 94.1511C104.644 93.0886 101.113 91.9167 95.7017 92.5C88.3267 93.2865 83.6965 97.5261 83.4985 97.6823C82.7173 98.3854 82.6756 99.6042 83.3839 100.349C83.7746 100.74 84.2433 100.938 84.7537 100.938C85.2277 100.938 85.6965 100.781 86.0506 100.427C86.0871 100.427 89.9308 96.9375 96.0923 96.2708ZM159.327 148.13L168.702 187.714L145.832 155.583C138.613 161.51 129.67 165.432 119.905 166.609L129.316 172.375L115.551 205.057V166.922C115.04 166.922 114.488 166.964 113.978 166.964C101.504 166.964 90.0923 162.411 81.3006 154.88L58.7485 188.812L68.3944 137.932C66.634 134.167 65.3371 130.125 64.5506 125.927L28.2642 139.224L54.785 116.589L64.2798 124.281C63.884 121.807 63.6912 119.255 63.6912 116.708C63.6912 109.766 65.1027 103.135 67.6496 97.1302L29.1287 85.9896L78.2433 81.3229C81.2225 78.3021 84.5975 75.6719 88.285 73.474L63.4517 40.2865L95.2277 60.6094L90.9517 71.9844C92.5246 71.1615 94.1704 70.4167 95.8579 69.7865L99.3475 60.4896L112.056 26.6354L111.785 66.4531C112.53 66.4167 113.233 66.4167 113.978 66.4167C122.337 66.4167 130.222 68.4531 137.165 72.0625L133.28 61.7448L165.056 40.9167L139.988 73.6302C143.634 75.8281 146.973 78.4948 149.952 81.5573L198.556 85.9531L159.915 96.1927C162.702 102.427 164.269 109.37 164.269 116.667C164.269 118.042 164.191 119.375 164.113 120.708L170.78 115.766L200.676 140.641L163.014 128.005C161.915 132.755 160.15 137.266 157.795 141.385L159.327 148.13ZM160.467 116.667C160.467 91.0521 139.634 70.1823 113.978 70.1823C88.3267 70.1823 67.4933 91.0104 67.4933 116.667C67.4933 142.323 88.3267 163.156 113.978 163.156C139.634 163.156 160.467 142.323 160.467 116.667ZM143.4 107.844C143.988 108.703 143.754 109.88 142.889 110.469L141.712 111.255C141.754 111.333 141.754 111.375 141.754 111.375C142.066 112.354 141.556 113.453 140.535 113.766C140.342 113.844 140.144 113.844 139.946 113.844C139.165 113.844 138.42 113.333 138.144 112.547C138.103 112.469 137.676 111.255 136.42 110.198C135.754 112.469 133.712 114.12 131.238 114.12C128.769 114.12 126.728 112.469 126.061 110.198C125.004 111.057 124.571 111.922 124.571 112C124.139 112.943 123.04 113.375 122.097 112.979C121.16 112.589 120.686 111.49 121.082 110.51C121.16 110.276 123.551 104.781 131.394 104.745L131.79 103.135C132.025 102.115 133.045 101.484 134.066 101.724C135.082 101.958 135.712 102.979 135.478 103.995L135.165 105.25C135.4 105.333 135.67 105.411 135.868 105.49L136.847 104.156C137.478 103.328 138.655 103.135 139.519 103.76C140.342 104.391 140.535 105.568 139.91 106.427L139.124 107.526C139.321 107.724 139.519 107.88 139.676 108.078L140.775 107.333C141.634 106.703 142.811 106.938 143.4 107.844ZM132.847 108.703C132.847 108.667 132.847 108.667 132.847 108.625C132.415 108.547 131.946 108.51 131.478 108.51C130.811 108.51 130.181 108.547 129.634 108.667V108.703C129.634 109.609 130.379 110.313 131.238 110.313C132.103 110.313 132.847 109.609 132.847 108.703ZM133.004 92.5C127.592 91.9167 124.061 93.0886 121.592 94.1511C120.65 94.5833 120.176 95.6823 120.608 96.6615C121.04 97.6042 122.139 98.0729 123.118 97.6406C125.28 96.6979 128.103 95.7969 132.613 96.2708C138.691 96.9375 142.618 100.427 142.655 100.469C143.009 100.818 143.478 100.974 143.952 100.974C144.462 100.974 144.967 100.781 145.321 100.385C146.03 99.6042 145.988 98.4271 145.207 97.7188C145.009 97.526 140.379 93.2865 133.004 92.5ZM171.801 198.344C171.801 198.344 171.842 198.344 171.879 198.385C171.999 198.427 172.077 198.505 172.196 198.542C173.332 198.932 174.587 198.151 174.707 196.932C174.707 196.896 174.707 196.854 174.707 196.818C174.707 196.661 174.707 196.5 174.665 196.307L163.603 149.464L209.228 147.151C210.009 147.109 210.676 146.599 210.952 145.854C211.186 145.109 210.952 144.286 210.363 143.776L173.957 113.453L210.285 86.5417C210.91 86.0677 211.186 85.2448 210.988 84.5C210.795 83.7552 210.129 83.2031 209.342 83.125L162.071 78.849L175.019 33.9323C175.254 33.1875 174.978 32.3646 174.311 31.8906C173.686 31.4219 172.821 31.3802 172.155 31.8125L131.983 58.1354C131.983 58.1354 115.9 15.3385 115.9 15.2969C115.821 15.1406 115.743 14.9844 115.665 14.8646C115.629 14.8281 115.629 14.8281 115.587 14.7865C114.644 13.6875 112.879 14.0417 112.374 15.3385L96.7173 57C96.7173 57 56.9412 31.5781 56.7485 31.4583C55.6079 30.7552 53.9621 31.5 53.8423 32.9531C53.8423 32.9896 53.8423 33.0312 53.8423 33.0677C53.8423 33.224 53.8423 33.4219 53.8839 33.5781L65.7694 78.7344C65.7694 78.7344 18.9308 83.1667 18.8892 83.1667C18.7329 83.1667 18.5767 83.2448 18.3787 83.2812C18.3423 83.2812 18.3006 83.3229 18.2642 83.3229C18.1079 83.401 17.9881 83.4792 17.8319 83.599C17.0871 84.1875 16.9308 85.2865 17.4412 86.0677C17.4777 86.1094 17.4777 86.1458 17.5194 86.1875C17.5975 86.3021 17.7121 86.4635 17.8735 86.5781L51.8423 114.198C44.2694 120.672 36.7381 127.104 29.1704 133.578C26.7381 135.656 24.3058 137.734 21.8735 139.812C20.8892 140.677 13.8683 145.62 18.6548 146.599C18.7329 146.599 18.7746 146.641 18.8527 146.641L62.2381 150.208L53.4517 196.5C53.2954 197.25 53.6079 197.995 54.2329 198.427C54.5506 198.661 54.9412 198.776 55.3319 198.776C55.686 198.776 56.0402 198.698 56.3162 198.505L95.5037 174.495L112.097 214.703C112.374 215.411 113.077 215.88 113.863 215.88C114.608 215.88 115.311 215.411 115.629 214.703L132.655 174.339L171.801 198.344ZM97.4673 114.12C94.9933 114.12 92.9152 112.432 92.285 110.198C90.9933 111.292 90.561 112.51 90.561 112.547C90.285 113.333 89.5402 113.844 88.7537 113.844C88.561 113.844 88.3631 113.807 88.1652 113.766C87.186 113.453 86.6392 112.354 86.9517 111.375C86.9517 111.375 86.9517 111.333 86.9933 111.255L85.8162 110.469C84.9517 109.88 84.7173 108.703 85.3058 107.844C85.8944 106.979 87.0714 106.745 87.9308 107.333L89.0298 108.078C89.186 107.88 89.384 107.724 89.5819 107.526L88.7954 106.427C88.1652 105.604 88.3631 104.391 89.186 103.76C90.009 103.135 91.2277 103.328 91.8527 104.156L92.8371 105.49C93.0714 105.411 93.3058 105.333 93.5402 105.25L93.2277 103.995C92.9933 102.979 93.6183 101.958 94.6392 101.724C95.66 101.484 96.6808 102.115 96.9152 103.135L97.3058 104.745C105.113 104.781 107.509 110.276 107.624 110.51C108.019 111.49 107.587 112.589 106.603 112.979C105.624 113.375 104.525 112.943 104.134 111.958C104.092 111.88 103.665 111.021 102.644 110.156C101.978 112.469 99.8944 114.12 97.4673 114.12ZM99.0714 108.703C98.5246 108.625 97.8944 108.547 97.2277 108.547C96.7173 108.547 96.2902 108.589 95.8579 108.667C95.8579 108.703 95.8579 108.703 95.8579 108.745C95.8579 109.646 96.6027 110.354 97.4673 110.354C98.3267 110.354 99.0714 109.609 99.0714 108.703ZM130.415 137.224C130.728 138.245 130.139 139.266 129.16 139.578C127.946 139.932 126.613 140.245 125.316 140.443C124.259 143.188 121.004 147.62 114.806 147.62C108.525 147.62 105.311 143.073 104.29 140.245C102.014 139.854 100.446 139.422 100.29 139.422C99.2694 139.146 98.6808 138.125 98.9152 137.109C99.1912 136.089 100.212 135.5 101.233 135.734C101.269 135.734 102.056 135.932 103.269 136.203C104.41 136.281 105.936 135.5 107.269 134.792C107.858 134.479 108.446 134.203 109.035 133.932C109.665 133.5 110.452 133.26 111.311 133.26C111.389 133.26 111.431 133.26 111.509 133.26C111.545 133.26 111.587 133.26 111.624 133.26H111.665C112.764 133.26 113.707 133.891 114.488 134.557C115.196 133.771 116.254 133.26 117.472 133.26C117.785 133.26 118.061 133.302 118.374 133.38C119.665 133.536 121.04 134.281 122.493 135.109C123.514 135.693 125.04 136.521 125.67 136.521C125.67 136.521 125.67 136.521 125.707 136.521C125.749 136.521 125.749 136.521 125.785 136.521C126.571 136.365 127.358 136.167 128.103 135.969C129.045 135.656 130.103 136.245 130.415 137.224ZM120.65 140.99C118.806 141.109 117.316 141.146 116.686 141.146C116.53 141.146 116.41 141.146 116.374 141.146H112.801C111.509 141.146 110.176 141.068 108.879 140.953C109.9 142.323 111.707 143.854 114.764 143.854C117.785 143.854 119.587 142.365 120.65 140.99Z" fill="#C9A227"/>
</svg>
