<svg width="1335" height="196" viewBox="0 0 1335 196" fill="none" xmlns="http://www.w3.org/2000/svg">
<path d="M0 3.77075H131.646V29.1874H129.771C129.771 28.9374 129.797 28.8489 129.854 28.9166C129.922 28.9739 129.958 28.8124 129.958 28.4374C129.958 24.177 127.542 20.3489 122.708 16.9583C117.875 13.5728 111.214 10.8437 102.729 8.77075C94.2552 6.68742 84.625 5.64575 73.8333 5.64575V139.75C73.8333 152.057 74.0208 161.917 74.3958 169.333C74.7708 176.74 76.0521 182.073 78.25 185.333C80.4583 188.599 84.2552 190.229 89.6458 190.229V192.104H40.5V190.229C45.901 190.229 49.8229 188.599 52.2708 185.333C54.7135 182.073 56.25 176.74 56.875 169.333C57.5 161.917 57.8125 152.057 57.8125 139.75V5.64575C47.0208 5.64575 37.3854 6.68742 28.9167 8.77075C20.4427 10.8437 13.7917 13.5728 8.95833 16.9583C4.125 20.3489 1.70833 24.177 1.70833 28.4374C1.70833 28.8124 1.73437 28.9739 1.79167 28.9166C1.85937 28.8489 1.89583 28.9374 1.89583 29.1874H0V3.77075Z" fill="#333333"/>
<path d="M142.943 159.146C142.943 151.37 144.761 144.375 148.401 138.167C152.052 131.948 156.735 126.292 162.443 121.208C168.151 116.115 174.203 111.469 180.61 107.271C187.011 103.063 193.068 99.1667 198.776 95.5833C204.495 92 209.177 88.5781 212.818 85.3125C216.453 82.0521 218.276 78.7865 218.276 75.5208C218.276 73.7708 217.839 72.4896 216.964 71.6667C216.089 70.849 215.016 70.4375 213.755 70.4375C211.505 70.4375 209.401 71.4479 207.443 73.4583C205.495 75.4583 203.578 77.75 201.693 80.3333C199.818 82.9063 197.782 85.1979 195.589 87.2083C193.391 89.2083 190.974 90.2083 188.339 90.2083C185.698 90.2083 184.094 89.1458 183.526 87.0208C182.969 84.8854 183.13 82.6198 184.005 80.2292C186.891 72.7031 189.526 65.7083 191.901 59.25C194.287 52.7813 196.641 46.5 198.964 40.4167C201.297 34.3229 203.683 28.0104 206.13 21.4792C208.573 14.9531 211.302 7.79167 214.318 0H216.214L276.485 159.146C280.62 169.438 284.511 177.198 288.151 182.417C291.787 187.625 296.495 190.229 302.276 190.229V192.104H240.505V190.229C247.157 190.229 252.203 189.349 255.651 187.583C259.11 185.823 261.339 183.37 262.339 180.229C263.349 177.094 263.474 173.453 262.714 169.313C261.964 165.177 260.714 160.719 258.964 155.938L235.61 94.3542C236.36 100.385 236.735 107.917 236.735 116.958C236.735 132.156 234.38 145.719 229.672 157.646C224.964 169.563 218.177 178.917 209.318 185.708C200.469 192.484 189.766 195.875 177.214 195.875C169.933 195.875 163.755 194.177 158.672 190.792C153.589 187.406 149.693 182.917 146.985 177.333C144.287 171.74 142.943 165.677 142.943 159.146ZM158.964 155.563C158.964 164.354 161.594 171.766 166.86 177.792C172.136 183.823 179.36 186.833 188.526 186.833C196.427 186.833 203.266 184.703 209.047 180.438C214.823 176.161 219.63 170.573 223.464 163.667C227.297 156.766 230.151 149.24 232.026 141.083C233.912 132.917 234.86 125 234.86 117.333C234.86 110.307 234.636 104.031 234.193 98.5C233.745 92.974 232.651 87.4531 230.901 81.9375L208.11 21.8542L186.443 79.4792C185.193 82.7448 184.844 85.0365 185.401 86.3542C185.969 87.6771 187.011 88.3333 188.526 88.3333C190.662 88.3333 192.735 87.3333 194.735 85.3333C196.745 83.3229 198.755 81.0313 200.755 78.4583C202.766 75.875 204.87 73.5833 207.068 71.5833C209.276 69.5729 211.63 68.5625 214.13 68.5625C215.891 68.5625 217.37 69.1615 218.568 70.3542C219.761 71.5521 220.36 73.3958 220.36 75.8958C220.36 80.0521 218.88 83.8542 215.922 87.3125C212.974 90.7604 209.177 94.1146 204.526 97.375C199.886 100.641 194.927 104.094 189.651 107.729C184.37 111.37 179.407 115.417 174.755 119.875C170.115 124.333 166.323 129.453 163.38 135.229C160.433 141.01 158.964 147.786 158.964 155.563Z" fill="#333333"/>
<path d="M307.921 192.104V190.229C313.322 190.229 317.244 188.599 319.691 185.333C322.134 182.073 323.671 176.74 324.296 169.333C324.931 161.917 325.254 152.057 325.254 139.75V56.125C325.254 43.6979 324.931 33.8073 324.296 26.4583C323.671 19.1146 322.134 13.8073 319.691 10.5417C317.244 7.28125 313.322 5.64583 307.921 5.64583V3.77083H330.525C337.426 3.77083 343.733 3.45833 349.441 2.83333C355.16 2.20833 360.941 1.58333 366.775 0.958333C372.619 0.322916 379.181 0 386.462 0C399.889 0 411.254 2.29167 420.546 6.875C429.837 11.4583 436.9 17.7083 441.733 25.625C446.566 33.5313 448.983 42.625 448.983 52.9167C448.983 61.4583 446.754 69.5 442.296 77.0417C437.837 84.5729 431.587 90.625 423.546 95.2083C415.514 99.7917 406.046 102.083 395.129 102.083C390.723 102.083 386.639 101.49 382.879 100.292C379.113 99.099 375.691 97.6875 372.608 96.0625C369.535 94.4271 366.744 93.0104 364.233 91.8125C361.718 90.6198 359.462 90.0208 357.462 90.0208C356.322 90.0208 355.129 90.3073 353.879 90.875C352.629 91.4479 352.004 92.7917 352.004 94.9167C352.004 97.3073 353.379 99.4479 356.129 101.333C358.889 103.208 362.468 105.094 366.858 106.979C371.259 108.87 375.968 110.948 380.983 113.208C386.009 115.458 390.843 118.219 395.483 121.479C400.134 124.745 403.968 128.766 406.983 133.542C410.744 139.307 414.634 145.49 418.65 152.083C422.676 158.682 426.921 164.87 431.379 170.646C435.837 176.411 440.509 181.12 445.4 184.771C450.301 188.411 455.452 190.229 460.858 190.229V192.104H432.046C429.905 192.104 427.801 191.229 425.733 189.479C423.66 187.719 421.119 184.729 418.108 180.521C415.093 176.313 411.233 170.573 406.525 163.292C401.816 156.016 395.754 146.786 388.337 135.604C383.822 128.703 379.301 123.245 374.775 119.229C370.259 115.203 366.15 111.969 362.441 109.521C358.744 107.078 355.764 104.76 353.504 102.563C351.238 100.354 350.108 97.6823 350.108 94.5417C350.108 92.2917 350.796 90.6667 352.171 89.6667C353.556 88.6563 355.072 88.1458 356.712 88.1458C359.462 88.1458 362.155 88.6823 364.796 89.75C367.431 90.8229 370.16 92.0781 372.983 93.5208C375.816 94.9688 378.926 96.224 382.316 97.2917C385.702 98.349 389.593 98.875 393.983 98.875C399.884 98.875 405.218 97.5625 409.983 94.9375C414.759 92.3021 418.843 88.8125 422.233 84.4792C425.634 80.1458 428.244 75.25 430.066 69.7917C431.884 64.3229 432.796 58.7604 432.796 53.1042C432.796 42.6875 430.468 33.7188 425.816 26.1875C421.176 18.6458 414.587 12.8438 406.046 8.77083C397.504 4.6875 387.4 2.64583 375.733 2.64583C368.816 2.64583 362.78 3.11979 357.629 4.0625C352.488 4.99479 347.03 6.53125 341.254 8.66667V139.75C341.254 152.057 341.566 161.917 342.191 169.333C342.827 176.74 344.369 182.073 346.816 185.333C349.259 188.599 353.181 190.229 358.587 190.229V192.104H307.921Z" fill="#333333"/>
<path d="M561.604 195.875C549.921 195.875 538.999 193.458 528.833 188.625C518.666 183.792 509.749 176.953 502.083 168.104C494.426 159.245 488.463 148.849 484.187 136.917C479.921 124.99 477.791 111.995 477.791 97.9375C477.791 83.7448 479.921 70.7188 484.187 58.8542C488.463 46.9948 494.426 36.6406 502.083 27.7917C509.749 18.9323 518.666 12.0833 528.833 7.25C538.999 2.41667 549.921 0 561.604 0C573.281 0 584.208 2.41667 594.374 7.25C604.541 12.0833 613.447 18.9323 621.104 27.7917C628.77 36.6406 634.734 46.9948 638.999 58.8542C643.275 70.7188 645.416 83.7448 645.416 97.9375C645.416 111.995 643.275 124.99 638.999 136.917C634.734 148.849 628.77 159.245 621.104 168.104C613.447 176.953 604.541 183.792 594.374 188.625C584.208 193.458 573.281 195.875 561.604 195.875ZM561.604 2.27083C551.812 2.27083 542.833 4.66146 534.666 9.4375C526.51 14.2031 519.447 20.8854 513.479 29.4792C507.52 38.0781 502.906 48.1875 499.645 59.8125C496.38 71.4271 494.749 84.1354 494.749 97.9375C494.749 111.62 496.505 124.302 500.02 135.979C503.531 147.661 508.364 157.802 514.52 166.396C520.671 174.995 527.796 181.682 535.895 186.458C543.989 191.224 552.562 193.604 561.604 193.604C570.645 193.604 579.213 191.224 587.312 186.458C595.406 181.682 602.531 174.995 608.687 166.396C614.838 157.802 619.671 147.661 623.187 135.979C626.697 124.302 628.458 111.62 628.458 97.9375C628.458 84.1354 626.822 71.4271 623.562 59.8125C620.296 48.1875 615.687 38.0781 609.729 29.4792C603.77 20.8854 596.708 14.2031 588.541 9.4375C580.374 4.66146 571.395 2.27083 561.604 2.27083Z" fill="#333333"/>
<path d="M733.921 48.9792C733.921 40.1875 736.525 32.0938 741.733 24.6875C746.952 17.2708 754.587 11.3073 764.629 6.79167C774.671 2.26563 786.91 0 801.358 0C812.9 0 822.905 0.822916 831.379 2.45833C839.863 4.08333 847.743 6.15625 855.025 8.66667V33.8958H853.15C853.15 33.8958 852.639 32.8333 851.629 30.7083C850.629 28.5729 848.931 25.9323 846.546 22.7917C844.171 19.6562 841.004 16.5156 837.046 13.375C833.087 10.2396 828.155 7.60417 822.254 5.47917C816.348 3.34375 809.384 2.27083 801.358 2.27083C789.676 2.27083 779.785 4.34375 771.691 8.47917C763.592 12.6198 757.467 17.8906 753.316 24.2917C749.176 30.6979 747.108 37.4167 747.108 44.4583C747.108 50.8646 748.764 56.3281 752.087 60.8542C755.421 65.3698 759.941 69.2604 765.65 72.5208C771.368 75.7865 777.743 78.6771 784.775 81.1875C791.801 83.6875 799.077 86.1979 806.608 88.7083C814.15 91.224 821.431 93.9583 828.462 96.9167C835.504 99.8646 841.879 103.406 847.587 107.542C853.296 111.682 857.806 116.677 861.129 122.521C864.462 128.354 866.129 135.417 866.129 143.708C866.129 150.24 864.493 156.615 861.233 162.833C857.967 169.042 853.259 174.625 847.108 179.583C840.952 184.542 833.546 188.5 824.879 191.458C816.223 194.401 806.431 195.875 795.504 195.875C787.223 195.875 779.316 194.677 771.775 192.292C764.243 189.906 757.342 186.927 751.066 183.354C744.785 179.771 739.327 176.286 734.691 172.896V147.667H736.566C736.566 147.667 737.535 149.177 739.483 152.188C741.426 155.188 744.316 158.917 748.15 163.375C751.983 167.833 756.691 172.292 762.275 176.75C767.858 181.208 774.322 184.948 781.671 187.958C789.014 190.974 797.15 192.479 806.066 192.479C812.967 192.479 819.4 191.354 825.358 189.104C831.327 186.844 836.546 183.766 841.004 179.875C845.462 175.974 848.941 171.578 851.441 166.688C853.952 161.786 855.212 156.698 855.212 151.417C855.212 144.391 853.514 138.333 850.129 133.25C846.738 128.167 842.155 123.807 836.379 120.167C830.598 116.531 824.098 113.266 816.879 110.375C809.671 107.49 802.233 104.724 794.566 102.083C786.91 99.4479 779.473 96.6198 772.254 93.6042C765.03 90.5938 758.53 87.1146 752.754 83.1667C746.988 79.2083 742.405 74.4375 739.004 68.8542C735.613 63.2604 733.921 56.6354 733.921 48.9792Z" fill="#333333"/>
<path d="M877.437 5.64575V3.77075H939.207V5.64575C932.551 5.64575 927.499 6.53117 924.041 8.29159C920.593 10.0572 918.364 12.5103 917.353 15.6458C916.353 18.7864 916.228 22.427 916.978 26.5624C917.739 30.703 918.999 35.1614 920.749 39.9374L971.603 174.021C979.379 151.802 987.478 129.578 995.895 107.354C1004.31 85.1353 1012.16 62.8489 1019.44 40.4999C1020.7 36.7395 1021.52 32.8124 1021.89 28.7291C1022.27 24.6458 1021.82 20.8853 1020.56 17.4374C1019.31 13.9791 1016.93 11.1562 1013.42 8.95825C1009.9 6.74992 1004.82 5.64575 998.166 5.64575V3.77075H1051.46V5.64575C1045.68 5.64575 1040.94 8.22388 1037.23 13.3749C1033.53 18.5312 1029.67 26.3124 1025.64 36.7291L965.395 195.875H963.499L903.228 36.7291C899.088 26.3124 895.197 18.5312 891.562 13.3749C887.921 8.22388 883.213 5.64575 877.437 5.64575Z" fill="#333333"/>
<path d="M1057.1 5.64575V3.77075H1191.95V29.1874H1190.06V28.4374C1190.06 22.1614 1184.13 16.7916 1172.27 12.3333C1160.4 7.87492 1143.61 5.64575 1121.89 5.64575H1090.62V86.6458C1093.51 83.8853 1096.81 81.7499 1100.52 80.2499C1104.22 78.7395 1108.21 77.9791 1112.47 77.9791C1117.11 77.9791 1121.35 78.578 1125.18 79.7708C1129.02 80.9687 1132.65 82.3124 1136.1 83.8124C1139.56 85.3124 1143.04 86.6614 1146.56 87.8541C1150.07 89.052 1153.9 89.6458 1158.06 89.6458C1161.69 89.6458 1164.92 88.677 1167.75 86.7291C1170.58 84.7864 1172 82.1822 1172 78.9166H1173.87C1173.87 84.4478 1171.7 89.2812 1167.37 93.4166C1163.04 97.5572 1157.17 99.6249 1149.77 99.6249C1143.99 99.6249 1138.96 98.8124 1134.68 97.1874C1130.42 95.552 1126.59 93.6666 1123.2 91.5416C1119.81 89.4062 1116.58 87.4895 1113.5 85.7916C1110.42 84.0989 1107.19 83.1874 1103.81 83.0624C1101.04 82.9374 1098.53 83.5103 1096.27 84.7708C1094.02 86.0208 1092.13 87.6458 1090.62 89.6458V190.229H1114.72C1117.74 190.229 1121.66 190.135 1126.5 189.937C1131.33 189.745 1136.57 189.333 1142.22 188.708C1147.88 188.083 1153.5 187.115 1159.08 185.792C1164.67 184.474 1169.83 182.75 1174.54 180.625C1179.25 178.49 1183.01 175.823 1185.83 172.625C1188.65 169.417 1190.06 165.552 1190.06 161.021H1191.95V192.104H1057.1V190.229C1062.5 190.229 1066.42 188.599 1068.87 185.333C1071.31 182.073 1072.85 176.74 1073.47 169.333C1074.11 161.917 1074.43 152.057 1074.43 139.75V56.1249C1074.43 43.6978 1074.11 33.8072 1073.47 26.4583C1072.85 19.1145 1071.31 13.8072 1068.87 10.5416C1066.42 7.28117 1062.5 5.64575 1057.1 5.64575Z" fill="#333333"/>
<path d="M1203.24 3.77075H1334.89V29.1874H1333.02C1333.02 28.9374 1333.04 28.8489 1333.1 28.9166C1333.17 28.9739 1333.2 28.8124 1333.2 28.4374C1333.2 24.177 1330.79 20.3489 1325.95 16.9583C1321.12 13.5728 1314.46 10.8437 1305.97 8.77075C1297.5 6.68742 1287.87 5.64575 1277.08 5.64575V139.75C1277.08 152.057 1277.27 161.917 1277.64 169.333C1278.02 176.74 1279.3 182.073 1281.49 185.333C1283.7 188.599 1287.5 190.229 1292.89 190.229V192.104H1243.74V190.229C1249.15 190.229 1253.07 188.599 1255.52 185.333C1257.96 182.073 1259.49 176.74 1260.12 169.333C1260.74 161.917 1261.06 152.057 1261.06 139.75V5.64575C1250.27 5.64575 1240.63 6.68742 1232.16 8.77075C1223.69 10.8437 1217.04 13.5728 1212.2 16.9583C1207.37 20.3489 1204.95 24.177 1204.95 28.4374C1204.95 28.8124 1204.98 28.9739 1205.04 28.9166C1205.1 28.8489 1205.14 28.9374 1205.14 29.1874H1203.24V3.77075Z" fill="#333333"/>
</svg>
